<svg id="Layer_1" data-name="Layer 1" xmlns="http://www.w3.org/2000/svg" viewBox="0 0 1000 1000"><defs><style>.cls-1,.cls-3{fill:#202020;}.cls-2{fill:none;}.cls-2,.cls-3{stroke:#fafbfb;stroke-miterlimit:10;stroke-width:34px;}</style></defs><title>esplogoinvs</title><path class="cls-1" d="M929.85,510.2A429.52,429.52,0,0,1,500,935.69H483.47v-.31A429.52,429.52,0,0,1,70.15,510.2a20.71,20.71,0,0,1,20.7-20.89h818.3a20.71,20.71,0,0,1,20.7,20.89Z"/><path class="cls-2" d="M287.49,500c0,234.72,95.14,425,212.51,425-233.29,0-422.69-188-425-420.69A4.28,4.28,0,0,1,79.28,500H920.72a4.28,4.28,0,0,1,4.28,4.31C922.69,737.05,733.29,925,500,925V500H712.51c0,234.72-95.14,425-212.51,425"/><line class="cls-3" x1="99.17" y1="641.65" x2="900.83" y2="641.65"/><line class="cls-3" x1="183.21" y1="783.31" x2="816.79" y2="783.31"/><ellipse class="cls-3" cx="500" cy="202.5" rx="127.51" ry="127.5"/><path class="cls-3" d="M500,500s-127.52,4-217.43-71.47C203.24,361.93,179.7,255.8,175.26,231.74a4.21,4.21,0,0,1,4.19-5c24.46.2,133.07,4.95,212.4,71.51C481.76,373.7,500,500,500,500Z"/><path class="cls-3" d="M824.74,231.74a4.21,4.21,0,0,0-4.19-5c-24.46.2-133.07,4.95-212.4,71.51C518.24,373.7,500,500,500,500s127.52,4,217.43-71.47C796.76,361.93,820.3,255.8,824.74,231.74Z"/></svg>